<svg xmlns="http://www.w3.org/2000/svg" viewBox="0 0 1024.00 1024.00" data-guides="{&quot;vertical&quot;:[],&quot;horizontal&quot;:[]}"><path fill="#000000" stroke="#000000" fill-opacity="1" stroke-width="1" stroke-opacity="1" id="tSvg4bf1ea3dcc" title="Path 10" d="M538.2582 424.1584C536.5842 427.0276 533.7662 427.4656 531.4328 428.6316C522.1962 433.2472 512.8439 437.6344 503.657 442.3449C500.5343 443.946 497.9363 444.0361 494.7734 442.4068C482.4821 436.0753 470.0759 429.9662 457.6919 423.8158C455.9579 422.9547 454.361 421.5848 452.2558 421.8382C451.042 422.9764 451.3945 424.3907 451.3877 425.6651C451.3296 436.4964 451.3921 447.3289 451.2541 458.1589C451.216 461.1563 452.0627 463.0661 454.9356 464.4523C468.2836 470.8928 481.5672 477.4696 494.7993 484.1453C498.0738 485.7972 500.9376 485.8852 504.2383 484.1811C513.5628 479.3669 523.0055 474.7811 532.4164 470.1351C534.0177 469.3445 535.4845 468.064 538.2867 468.5718C538.2867 476.329 538.361 484.216 538.2338 492.0997C538.2026 494.0399 536.2391 494.5909 534.764 495.3194C524.31 500.4827 513.8164 505.5673 503.4121 510.8286C500.6125 512.2443 498.1553 512.2591 495.3775 510.8608C474.2531 500.2266 453.1131 489.6226 431.9185 479.1294C428.7199 477.5458 427.8862 475.2833 427.9028 471.9326C427.9976 452.7696 427.8299 433.6049 427.9813 414.4427C428.0105 410.7391 426.7841 408.7211 423.4306 407.1831C414.9546 403.2957 406.6228 399.0911 398.2734 394.9329C396.7136 394.156 394.7153 393.8721 394.0063 392.1085C393.9324 391.0699 394.5028 390.6906 395.1004 390.397C427.6918 374.3882 460.3214 358.4565 492.8443 342.3098C497.4624 340.017 501.254 339.9077 505.8581 342.4358C514.8968 347.3988 524.2765 351.7406 534.133 356.647C542.9944 342.1212 550.6717 327.121 559.3826 311.0001C567.95 326.8608 575.7724 341.3423 583.4957 355.6404C581.6518 357.663 579.8908 357.1804 578.3001 357.2215C571.366 357.4007 571.8578 357.4192 571.2178 364.4871C570.5798 371.533 572.9916 375.4668 579.6357 378.0639C586.899 380.903 593.7363 384.8466 600.7057 388.4132C602.41 389.2854 604.496 389.7511 605.4888 391.7595C604.8377 393.8854 602.8108 394.18 601.2622 394.9522C593.0651 399.0397 584.8928 403.1912 576.5571 406.9799C572.7079 408.7295 571.2554 411.0296 571.3077 415.361C571.5353 434.1883 571.2602 453.0214 571.4503 471.8496C571.4919 475.9819 570.0797 478.3132 566.3834 479.9196C560.6351 482.4178 555.0334 485.2531 549.5122 487.8776C547.2363 485.5067 547.9713 483.2321 547.9683 481.1835C547.9119 442.8564 547.9138 404.5292 547.9006 366.202C547.8974 357.0149 547.6727 356.8188 538.1188 357.57C538.1188 366.4328 538.1188 375.3033 538.1188 384.4303C533.7873 383.9695 530.5853 381.7305 527.199 380.1414C519.5125 376.5343 511.9149 372.7247 504.3997 368.7719C501.1846 367.0807 498.3396 366.7505 494.9805 368.4323C479.5104 376.178 463.9584 383.7602 447.3915 391.9151C451.788 394.2891 455.3171 396.3083 458.9444 398.1324C470.2555 403.8206 481.705 409.244 492.8875 415.1726C497.3315 417.5286 500.9539 417.6459 505.4231 415.1981C514.183 410.4005 523.2581 406.176 532.2332 401.7762C533.8345 400.9912 535.3775 399.8378 538.0847 400.2471C538.9305 407.9783 538.3583 415.8711 538.2582 424.1584Z" style=""/><defs/></svg>